<?xml version="1.0" standalone="no"?>
<!DOCTYPE svg PUBLIC "-//W3C//DTD SVG 20010904//EN"
 "http://www.w3.org/TR/2001/REC-SVG-20010904/DTD/svg10.dtd">
<svg version="1.0" xmlns="http://www.w3.org/2000/svg"
 width="512.000000pt" height="512.000000pt" viewBox="0 0 512.000000 512.000000"
 preserveAspectRatio="xMidYMid meet">
<metadata>
Created by potrace 1.14, written by Peter Selinger 2001-2017
</metadata>
<g transform="translate(0.000000,512.000000) scale(0.100000,-0.100000)"
fill="#000000" stroke="none">
<path d="M3592 5094 c-60 -30 -105 -82 -119 -139 -5 -22 -9 -161 -9 -309 1
-206 -2 -270 -11 -273 -7 -3 -629 -6 -1381 -7 l-1369 -1 -36 -28 c-47 -36 -60
-60 -60 -117 0 -63 16 -95 64 -127 l42 -27 1375 -1 1376 0 1 -290 c1 -324 3
-333 70 -398 65 -63 76 -64 520 -65 455 -1 475 1 542 67 76 73 74 46 71 857
l-3 719 -22 42 c-29 53 -84 98 -139 112 -27 7 -190 11 -451 11 l-409 0 -52
-26z"/>
<path d="M2340 2842 c-19 -11 -44 -31 -55 -46 -20 -27 -20 -43 -25 -829 l-5
-801 -135 -37 c-162 -44 -371 -102 -575 -159 -82 -23 -195 -54 -251 -69 -123
-34 -192 -70 -259 -137 -54 -54 -110 -155 -122 -220 -4 -21 -7 -129 -7 -240
l-1 -201 29 -37 c54 -71 -89 -66 1857 -66 l1761 0 39 22 c25 14 46 37 60 64
18 39 20 59 18 239 -1 157 -5 209 -19 256 -24 80 -64 144 -122 200 -45 43
-148 104 -193 114 -11 2 -63 17 -115 34 -197 61 -421 131 -585 183 l-170 53 0
223 c-1 122 2 226 5 230 3 4 66 26 140 49 424 130 762 239 810 261 68 31 159
121 194 190 47 94 55 143 56 388 1 209 -1 229 -20 268 -11 22 -33 50 -48 61
-27 20 -45 20 -1127 23 -1057 2 -1101 1 -1135 -16z"/>
<path d="M533 2689 c-44 -21 -83 -82 -83 -127 0 -37 241 -672 266 -702 13 -15
36 -32 51 -38 21 -9 816 -210 893 -227 8 -2 71 -17 140 -34 69 -17 132 -33
141 -35 15 -3 16 48 16 590 l0 594 -691 0 c-680 0 -692 0 -733 -21z"/>
</g>
</svg>
